<?xml version="1.0" standalone="no"?><!DOCTYPE svg PUBLIC "-//W3C//DTD SVG 1.1//EN" "http://www.w3.org/Graphics/SVG/1.1/DTD/svg11.dtd"><svg t="1559184581159" class="icon" style="" viewBox="0 0 1024 1024" version="1.1" xmlns="http://www.w3.org/2000/svg" p-id="2007" xmlns:xlink="http://www.w3.org/1999/xlink" width="200" height="200"><defs><style type="text/css"></style></defs><path d="M972.8 0H51.2C20.48 0 0 20.48 0 51.2v665.6c0 30.72 20.48 51.2 51.2 51.2h409.6v153.6H153.6v102.4h716.8v-102.4h-307.2v-153.6h409.6c30.72 0 51.2-20.48 51.2-51.2V51.2c0-30.72-20.48-51.2-51.2-51.2z m-51.2 665.6H102.4V102.4h819.2v563.2z" p-id="2008" fill="#ffffff"></path><path d="M512 588.8l291.84-296.96-71.68-71.68-215.04 215.04-143.36-158.72-204.8 199.68 71.68 71.68 128-122.88z" p-id="2009" fill="#ffffff"></path></svg>