<?xml version="1.0" standalone="no"?><!DOCTYPE svg PUBLIC "-//W3C//DTD SVG 1.1//EN" "http://www.w3.org/Graphics/SVG/1.1/DTD/svg11.dtd"><svg t="1559184703481" class="icon" style="" viewBox="0 0 1024 1024" version="1.1" xmlns="http://www.w3.org/2000/svg" p-id="2308" xmlns:xlink="http://www.w3.org/1999/xlink" width="200" height="200"><defs><style type="text/css"></style></defs><path d="M844.8 614.4c-25.6 0-46.08 5.12-66.56 15.36l-102.4-174.08C732.16 404.48 768 332.8 768 256c0-143.36-112.64-256-256-256S256 112.64 256 256c0 81.92 40.96 153.6 102.4 199.68l-66.56 112.64c-20.48 0-40.96-5.12-61.44-5.12C102.4 563.2 0 665.6 0 793.6S102.4 1024 230.4 1024 460.8 921.6 460.8 793.6c0-71.68-30.72-133.12-81.92-174.08l66.56-117.76c25.6 5.12 46.08 10.24 66.56 10.24 25.6 0 51.2-5.12 71.68-10.24l112.64 194.56c-20.48 30.72-30.72 61.44-30.72 102.4 0 97.28 81.92 179.2 179.2 179.2s179.2-81.92 179.2-179.2-81.92-184.32-179.2-184.32z m-614.4 307.2C158.72 921.6 102.4 865.28 102.4 793.6S158.72 665.6 230.4 665.6 358.4 721.92 358.4 793.6 302.08 921.6 230.4 921.6zM358.4 256c0-87.04 66.56-153.6 153.6-153.6s153.6 66.56 153.6 153.6-66.56 153.6-153.6 153.6-153.6-66.56-153.6-153.6z m486.4 614.4c-40.96 0-76.8-35.84-76.8-76.8s35.84-76.8 76.8-76.8 76.8 35.84 76.8 76.8-35.84 76.8-76.8 76.8z" p-id="2309" fill="#ffffff"></path></svg>