<?xml version="1.0" standalone="no"?><!DOCTYPE svg PUBLIC "-//W3C//DTD SVG 1.1//EN" "http://www.w3.org/Graphics/SVG/1.1/DTD/svg11.dtd"><svg t="1559184805285" class="icon" style="" viewBox="0 0 1024 1024" version="1.1" xmlns="http://www.w3.org/2000/svg" p-id="2480" xmlns:xlink="http://www.w3.org/1999/xlink" width="200" height="200"><defs><style type="text/css"></style></defs><path d="M972.8 967.68c-20.48-281.6-112.64-460.8-286.72-527.36 51.2-46.08 81.92-112.64 81.92-184.32 0-143.36-112.64-256-256-256S256 112.64 256 256c0 71.68 30.72 138.24 81.92 184.32C163.84 512 71.68 691.2 51.2 967.68L46.08 1024H972.8v-56.32zM512 102.4c87.04 0 153.6 66.56 153.6 153.6s-66.56 153.6-153.6 153.6-153.6-66.56-153.6-153.6 66.56-153.6 153.6-153.6zM158.72 921.6c30.72-281.6 148.48-409.6 353.28-409.6s322.56 128 353.28 409.6H158.72z" p-id="2481" fill="#ffffff"></path><path d="M614.4 793.6h153.6v51.2h-153.6z" p-id="2482" fill="#ffffff"></path></svg>