<?xml version="1.0" standalone="no"?><!DOCTYPE svg PUBLIC "-//W3C//DTD SVG 1.1//EN" "http://www.w3.org/Graphics/SVG/1.1/DTD/svg11.dtd"><svg t="1559186319074" class="icon" style="" viewBox="0 0 1024 1024" version="1.1" xmlns="http://www.w3.org/2000/svg" p-id="1649" xmlns:xlink="http://www.w3.org/1999/xlink" width="200" height="200"><defs><style type="text/css"></style></defs><path d="M771.2 128H864c16 0 32-12.8 32-32s-16-32-35.2-32H768c-16 0-32 12.8-32 32s16 32 35.2 32zM860.8 192H768c-16 0-32 12.8-32 32s16 32 35.2 32H864c16 0 32-12.8 32-32s-16-32-35.2-32zM860.8 320H768c-16 0-32 12.8-32 32s16 32 35.2 32H864c19.2 0 35.2-12.8 35.2-32s-19.2-32-38.4-32z" fill="#F67979" p-id="1650"></path><path d="M652.8 201.6C652.8 108.8 576 32 480 32S307.2 108.8 307.2 201.6V416c-147.2 92.8-192 288-96 432s294.4 188.8 441.6 96c147.2-92.8 192-288 96-432-25.6-38.4-57.6-70.4-96-96V201.6z" fill="#FFB6B6" p-id="1651"></path><path d="M496 928c150.4 0 272-108.8 272-240 0-32-54.4-57.6-137.6-44.8-86.4 12.8-156.8 51.2-243.2 57.6-124.8 6.4-163.2-57.6-163.2-12.8 0 131.2 121.6 240 272 240z" fill="#F67979" p-id="1652"></path></svg>