<?xml version="1.0" standalone="no"?><!DOCTYPE svg PUBLIC "-//W3C//DTD SVG 1.1//EN" "http://www.w3.org/Graphics/SVG/1.1/DTD/svg11.dtd"><svg t="1559210113868" class="icon" style="" viewBox="0 0 1024 1024" version="1.1" xmlns="http://www.w3.org/2000/svg" p-id="1857" xmlns:xlink="http://www.w3.org/1999/xlink" width="200" height="200"><defs><style type="text/css"></style></defs><path d="M512 976c-265.6 0-480-214.4-480-480C32 281.6 179.2 89.6 387.2 32c16-3.2 32 0 41.6 12.8 9.6 12.8 9.6 28.8 3.2 41.6-35.2 57.6-54.4 121.6-54.4 188.8 0 195.2 160 355.2 355.2 355.2 67.2 0 131.2-19.2 188.8-54.4 12.8-9.6 28.8-6.4 41.6 0 12.8 9.6 19.2 25.6 12.8 41.6C918.4 832 729.6 976 512 976z" fill="#C6C6C6" p-id="1858"></path><path d="M928 384h-288v-64l192-192h-192V64h288v64l-192 192h192z" fill="#C6C6C6" p-id="1859"></path></svg>