<?xml version="1.0" standalone="no"?><!DOCTYPE svg PUBLIC "-//W3C//DTD SVG 1.1//EN" "http://www.w3.org/Graphics/SVG/1.1/DTD/svg11.dtd"><svg t="1559209820919" class="icon" style="" viewBox="0 0 1024 1024" version="1.1" xmlns="http://www.w3.org/2000/svg" p-id="1354" xmlns:xlink="http://www.w3.org/1999/xlink" width="200" height="200"><defs><style type="text/css"></style></defs><path d="M770.24 128h91.52C880.64 128 896 113.664 896 96s-15.36-32-34.24-32h-91.52C751.36 64 736 78.336 736 96s15.36 32 34.24 32zM861.76 192h-91.52C751.36 192 736 206.336 736 224s15.36 32 34.24 32h91.52C880.64 256 896 241.664 896 224s-15.36-32-34.24-32zM861.76 320h-91.52c-18.88 0-34.24 14.336-34.24 32s15.36 32 34.24 32h91.52c18.88 0 34.24-14.336 34.24-32s-15.36-32-34.24-32z" fill="#C6C6C6" p-id="1355"></path><path d="M652.672 200.96C652.672 107.648 575.36 32 480 32S307.328 107.648 307.328 200.96v214.336c-148.768 93.312-192.064 286.944-96.704 432.512 95.36 145.6 293.248 187.968 442.048 94.656 148.768-93.312 192.064-286.944 96.704-432.544a316.608 316.608 0 0 0-96.704-94.624V200.96z" fill="#E9E9E9" p-id="1356"></path><path d="M496 928c150.208 0 272-107.52 272-240.096 0-33.408-54.016-56.96-137.408-44.512-87.424 13.056-156.672 52.288-241.92 56.928C262.976 707.136 224 644.64 224 687.904 224 820.48 345.792 928 496 928z" fill="#C6C6C6" p-id="1357"></path></svg>