<?xml version="1.0" standalone="no"?><!DOCTYPE svg PUBLIC "-//W3C//DTD SVG 1.1//EN" "http://www.w3.org/Graphics/SVG/1.1/DTD/svg11.dtd"><svg t="1559209976001" class="icon" style="" viewBox="0 0 1024 1024" version="1.1" xmlns="http://www.w3.org/2000/svg" p-id="1478" xmlns:xlink="http://www.w3.org/1999/xlink" width="200" height="200"><defs><style type="text/css"></style></defs><path d="M822.4 582.4c-22.4 9.6-44.8 16-70.4 16-92.8 0-166.4-76.8-166.4-169.6 0-54.4 35.2-131.2 76.8-192C604.8 156.8 544 80 496 32 371.2 160 160 470.4 160 656 160 841.6 310.4 992 496 992S832 841.6 832 656c0-22.4-3.2-48-9.6-73.6zM640 736h-96v96h-96v-96h-96v-96h96v-96h96v96h96v96z" fill="#C6C6C6" p-id="1479"></path><path d="M752 550.4c67.2 0 121.6-54.4 121.6-121.6 0-64-67.2-172.8-118.4-233.6-54.4 64-121.6 172.8-121.6 233.6 0 67.2 51.2 121.6 118.4 121.6z" fill="#C6C6C6" p-id="1480"></path></svg>