<?xml version="1.0" standalone="no"?><!DOCTYPE svg PUBLIC "-//W3C//DTD SVG 1.1//EN" "http://www.w3.org/Graphics/SVG/1.1/DTD/svg11.dtd"><svg t="1559210018886" class="icon" style="" viewBox="0 0 1024 1024" version="1.1" xmlns="http://www.w3.org/2000/svg" p-id="1607" xmlns:xlink="http://www.w3.org/1999/xlink" width="200" height="200"><defs><style type="text/css"></style></defs><path d="M971.392 458.976h-265.984c-35.776 0-69.12 17.92-88.832 47.648l-38.272 57.856-0.384 0.544a20 20 0 0 1-34.496-2.048l-111.392-221.472a53.472 53.472 0 0 0-92.992-4.384l-1.536 2.432-64.896 103.392-7.008 11.168a64.448 64.448 0 0 1-54.592 30.144H56.032C17.44 382.72 20.256 278.016 102.176 182.592c107.616-116.608 281.408-114.88 389.024 1.728l28.16 37.568 28.224-37.568c107.584-116.608 281.344-118.336 388.992-1.728 59.52 79.488 71.104 171.616 34.784 276.384h0.032z m-38.016 84.224c-63.584 115.712-178.88 245.12-345.952 388.16l-3.776 3.52a94.816 94.816 0 0 1-128.96-0.352c-99.328-74.432-271.36-216.32-362.304-374.464H239.36a95.456 95.456 0 0 0 80.096-43.552l46.496-71.776 2.016-3.2a22.144 22.144 0 0 1 38.528 2.496l97.408 203.36 0.48 1.024a66.144 66.144 0 0 0 117.056 4.16l42.624-74.752a68.672 68.672 0 0 1 59.648-34.624H933.376z" fill="#C6C6C6" p-id="1608"></path></svg>