<?xml version="1.0" standalone="no"?><!DOCTYPE svg PUBLIC "-//W3C//DTD SVG 1.1//EN" "http://www.w3.org/Graphics/SVG/1.1/DTD/svg11.dtd"><svg t="1559210061468" class="icon" style="" viewBox="0 0 1024 1024" version="1.1" xmlns="http://www.w3.org/2000/svg" p-id="1735" xmlns:xlink="http://www.w3.org/1999/xlink" width="200" height="200"><defs><style type="text/css"></style></defs><path d="M38.176 589.152h183.136c13.376 0 25.824-7.744 32.64-18.624l33.152-54.016 50.336 227.328c3.648 16.64 19.2 24.16 37.184 24.16h0.48c18.144 0 33.6-8.224 36.8-25.056l66.016-341.504 60.544 333.6c2.24 12.352 11.136 22.72 23.488 27.296 19.488 7.2 41.504-1.824 49.152-20.192l64.192-153.024h310.528C948.928 817.6 750.848 992 512 992 273.184 992 75.072 817.6 38.176 589.152zM32 518.08L32 512C32 246.912 246.912 32 512 32c265.088 0 480 214.912 480 480l-0.032 6.016a40.48 40.48 0 0 0-5.888-0.416H649.504c-15.552 0-29.568 9.088-35.232 22.784l-23.872 57.024-74.176-408.256c-3.104-17.088-18.816-29.12-37.248-29.12h-0.16c-18.24-0.288-34.016 11.904-37.344 28.832l-69.504 363.712-30.496-138.944c-4.032-14.912-4.736-17.024-7.584-25.664-5.056-15.36-19.04-17.792-31.488-15.36-12.48 2.496-18.976 12.288-30.688 30.112l-72.096 114.88H37.92c-1.984 0-3.968 0.16-5.888 0.448z" fill="#C6C6C6" p-id="1736"></path></svg>