<?xml version="1.0" standalone="no"?><!DOCTYPE svg PUBLIC "-//W3C//DTD SVG 1.1//EN" "http://www.w3.org/Graphics/SVG/1.1/DTD/svg11.dtd"><svg t="1559210179600" class="icon" style="" viewBox="0 0 1024 1024" version="1.1" xmlns="http://www.w3.org/2000/svg" p-id="2108" xmlns:xlink="http://www.w3.org/1999/xlink" width="200" height="200"><defs><style type="text/css"></style></defs><path d="M375.904 250.496c-45.952 0-115.456 29.536-158.848 73.696L69.312 486.08c-7.36 8.096-7.04 20.48 0.736 28.16l50.304 49.696a19.84 19.84 0 0 0 15.296 5.952 20.64 20.64 0 0 0 14.816-6.944l106.016-119.904V971.52c0 11.328 9.248 20.448 20.64 20.448h71.104a20.544 20.544 0 0 0 20.64-20.448l14.848-307.872 14.976 307.872c0 11.328 9.248 20.448 20.64 20.448h71.04a20.448 20.448 0 0 0 20.576-20.448V443.008l106.048 119.904a20.864 20.864 0 0 0 14.88 6.944 20.096 20.096 0 0 0 15.264-5.952l50.24-49.728a20.224 20.224 0 0 0 0.704-28.128L550.4 324.192c-30.816-33.728-87.168-73.696-174.496-73.696zM906.592 32h-98.464c-11.84 0-21.44 8.96-21.44 20.032 0 11.04 9.6 20.032 21.44 20.032h77.024v189.92h-52.352c-11.872 0-21.44 8.992-21.44 20.064 0 11.04 9.568 20 21.44 20h52.352v189.92h-52.352c-11.872 0-21.44 8.96-21.44 20.032s9.568 20.032 21.44 20.032h52.352v189.92h-52.352c-11.84-0.032-21.44 8.896-21.44 19.904v0.096c0 11.104 9.568 20.032 21.44 20.032h52.352v189.952h-77.024c-11.84 0-21.44 8.96-21.44 20.032s9.6 20.032 21.44 20.032h98.464c11.84 0 21.376-8.96 21.408-20.032V52.032C928 40.96 918.432 32 906.592 32z m-522.88 183.168c39.168 0 71.04-31.68 71.04-70.624a70.912 70.912 0 0 0-71.04-70.624c-39.168 0-71.04 31.68-71.04 70.624 0 38.944 31.872 70.624 71.04 70.624z" fill="#C6C6C6" p-id="2109"></path></svg>