<?xml version="1.0" standalone="no"?><!DOCTYPE svg PUBLIC "-//W3C//DTD SVG 1.1//EN" "http://www.w3.org/Graphics/SVG/1.1/DTD/svg11.dtd"><svg t="1559186210136" class="icon" style="" viewBox="0 0 1024 1024" version="1.1" xmlns="http://www.w3.org/2000/svg" p-id="1521" xmlns:xlink="http://www.w3.org/1999/xlink" width="200" height="200"><defs><style type="text/css"></style></defs><path d="M972.8 457.6H704c-35.2 0-70.4 19.2-89.6 48L576 563.2c-6.4 9.6-19.2 12.8-28.8 6.4-3.2-3.2-6.4-3.2-6.4-6.4l-112-220.8c-12.8-25.6-44.8-38.4-70.4-22.4-6.4 3.2-12.8 9.6-19.2 16v3.2l-64 102.4-6.4 9.6c-12.8 19.2-32 28.8-54.4 28.8H57.6C16 384 19.2 278.4 102.4 182.4c108.8-115.2 281.6-115.2 387.2 3.2l28.8 38.4 28.8-38.4c108.8-115.2 281.6-118.4 390.4-3.2 57.6 80 70.4 172.8 35.2 275.2zM934.4 544c-64 115.2-179.2 246.4-345.6 387.2l-3.2 3.2c-35.2 35.2-92.8 32-128 0-99.2-73.6-272-217.6-361.6-374.4h147.2c32 0 64-16 80-44.8l48-70.4 3.2-3.2c6.4-9.6 19.2-12.8 32-6.4 3.2 3.2 6.4 6.4 6.4 9.6l96 204.8c16 32 54.4 48 89.6 32 12.8-6.4 22.4-16 28.8-25.6l41.6-73.6c12.8-22.4 35.2-35.2 60.8-35.2l204.8-3.2z" fill="#EE6172" p-id="1522"></path></svg>