<?xml version="1.0" standalone="no"?><!DOCTYPE svg PUBLIC "-//W3C//DTD SVG 1.1//EN" "http://www.w3.org/Graphics/SVG/1.1/DTD/svg11.dtd"><svg t="1559185287808" class="icon" style="" viewBox="0 0 1024 1024" version="1.1" xmlns="http://www.w3.org/2000/svg" p-id="1620" xmlns:xlink="http://www.w3.org/1999/xlink" width="200" height="200"><defs><style type="text/css"></style></defs><path d="M38.4 588.8h182.4c12.8 0 25.6-6.4 32-19.2l32-54.4 51.2 227.2c3.2 16 19.2 25.6 38.4 25.6s35.2-9.6 38.4-25.6L480 400 537.6 736c3.2 12.8 9.6 22.4 22.4 28.8 19.2 6.4 41.6-3.2 48-19.2l64-153.6h310.4c-32 224-230.4 400-470.4 400-240 0-438.4-176-473.6-403.2zM32 518.4V512C32 246.4 246.4 32 512 32s480 214.4 480 480v6.4H649.6c-16 0-28.8 9.6-35.2 22.4l-22.4 57.6-76.8-409.6C512 172.8 496 160 480 160c-19.2 0-35.2 12.8-38.4 28.8l-70.4 364.8-32-137.6c-3.2-16-3.2-16-6.4-25.6-6.4-16-19.2-19.2-32-16s-19.2 12.8-32 28.8l-73.6 115.2H32z" fill="#53A9F7" p-id="1621"></path></svg>