<?xml version="1.0" standalone="no"?><!DOCTYPE svg PUBLIC "-//W3C//DTD SVG 1.1//EN" "http://www.w3.org/Graphics/SVG/1.1/DTD/svg11.dtd"><svg t="1559186435481" class="icon" style="" viewBox="0 0 1024 1024" version="1.1" xmlns="http://www.w3.org/2000/svg" p-id="1908" xmlns:xlink="http://www.w3.org/1999/xlink" width="200" height="200"><defs><style type="text/css"></style></defs><path d="M60.8 908.8h336c12.8 0 25.6 9.6 25.6 25.6 0 12.8-9.6 25.6-25.6 25.6H60.8c-12.8 0-25.6-9.6-25.6-25.6 3.2-16 12.8-25.6 25.6-25.6zM60.8 780.8h240c12.8 0 25.6 9.6 25.6 25.6 0 12.8-9.6 25.6-25.6 25.6H60.8c-12.8 0-25.6-9.6-25.6-25.6 3.2-16 12.8-25.6 25.6-25.6zM60.8 652.8h144c12.8 0 25.6 9.6 25.6 25.6 0 12.8-9.6 25.6-25.6 25.6H60.8c-12.8 0-25.6-9.6-25.6-25.6 3.2-16 12.8-25.6 25.6-25.6z" fill="#3BDFDF" p-id="1909"></path><path d="M998.4 867.2c0-60.8-41.6-112-102.4-124.8l-121.6-25.6-96-352c-105.6-9.6-169.6-32-192-64-19.2-28.8-32-48-48-144-9.6-96-57.6-118.4-144-64L44.8 304c-12.8 12.8-16 32-3.2 44.8L566.4 960c6.4 6.4 16 9.6 25.6 9.6h374.4c19.2 0 32-16 32-32v-70.4z m-544-406.4h188.8l9.6 32h-185.6l-12.8-32z m41.6 96H672l12.8 32H512l-16-32z m70.4 128l-16-32h150.4l12.8 32h-147.2z" fill="#5DE1E0" p-id="1910"></path></svg>