<?xml version="1.0" standalone="no"?><!DOCTYPE svg PUBLIC "-//W3C//DTD SVG 1.1//EN" "http://www.w3.org/Graphics/SVG/1.1/DTD/svg11.dtd"><svg t="1559186510099" class="icon" style="" viewBox="0 0 1024 1024" version="1.1" xmlns="http://www.w3.org/2000/svg" p-id="2037" xmlns:xlink="http://www.w3.org/1999/xlink" width="200" height="200"><defs><style type="text/css"></style></defs><path d="M374.4 249.6c-44.8 0-115.2 28.8-160 73.6l-147.2 163.2c-6.4 9.6-6.4 19.2 0 28.8l51.2 51.2c3.2 3.2 9.6 6.4 16 6.4s9.6-3.2 16-6.4L256 441.6v528c0 12.8 9.6 22.4 22.4 22.4h70.4c12.8 0 19.2-9.6 19.2-19.2l16-307.2 16 307.2c0 12.8 9.6 19.2 19.2 19.2h70.4c12.8 0 19.2-9.6 19.2-19.2V441.6l105.6 118.4c3.2 3.2 9.6 6.4 16 6.4s12.8-3.2 16-6.4l51.2-51.2c6.4-6.4 9.6-19.2 0-28.8l-147.2-163.2c-32-25.6-86.4-67.2-176-67.2zM905.6 32h-99.2c-12.8 0-22.4 9.6-22.4 19.2s9.6 19.2 22.4 19.2h76.8v188.8H832c-12.8 0-22.4 9.6-22.4 19.2s9.6 19.2 22.4 19.2h51.2v188.8H832c-12.8 0-22.4 9.6-22.4 19.2s9.6 19.2 22.4 19.2h51.2v188.8H832c-12.8 0-22.4 9.6-22.4 19.2s9.6 19.2 22.4 19.2h51.2v188.8h-76.8c-12.8 0-22.4 9.6-22.4 19.2s9.6 19.2 22.4 19.2h99.2c12.8 0 22.4-9.6 22.4-19.2V51.2c0-9.6-9.6-19.2-22.4-19.2zM384 214.4c38.4 0 70.4-32 70.4-70.4 0-38.4-32-70.4-70.4-70.4-38.4 0-70.4 32-70.4 70.4 0 38.4 32 70.4 70.4 70.4z" fill="#4FD28A" p-id="2038"></path></svg>