<?xml version="1.0" standalone="no"?><!DOCTYPE svg PUBLIC "-//W3C//DTD SVG 1.1//EN" "http://www.w3.org/Graphics/SVG/1.1/DTD/svg11.dtd"><svg t="1559184472009" class="icon" style="" viewBox="0 0 1024 1024" version="1.1" xmlns="http://www.w3.org/2000/svg" p-id="1834" xmlns:xlink="http://www.w3.org/1999/xlink" width="200" height="200"><defs><style type="text/css"></style></defs><path d="M51.2 153.6h204.8v51.2c0 30.72 20.48 51.2 51.2 51.2h409.6c30.72 0 51.2-20.48 51.2-51.2V153.6h204.8c30.72 0 51.2 20.48 51.2 51.2v716.8c0 30.72-20.48 51.2-51.2 51.2H51.2c-30.72 0-51.2-20.48-51.2-51.2V204.8c0-30.72 20.48-51.2 51.2-51.2z m51.2 102.4v614.4h819.2V256h-61.44c-20.48 61.44-76.8 102.4-143.36 102.4H307.2c-66.56 0-122.88-40.96-143.36-102.4H102.4z" p-id="1835" fill="#ffffff"></path><path d="M665.6 102.4H358.4c-30.72 0-51.2 20.48-51.2 51.2s20.48 51.2 51.2 51.2h307.2c30.72 0 51.2-20.48 51.2-51.2s-20.48-51.2-51.2-51.2zM665.6 563.2h-102.4V460.8H460.8v102.4H358.4v102.4h102.4v102.4h102.4v-102.4h102.4z" p-id="1836" fill="#ffffff"></path></svg>