<?xml version="1.0" standalone="no"?><!DOCTYPE svg PUBLIC "-//W3C//DTD SVG 1.1//EN" "http://www.w3.org/Graphics/SVG/1.1/DTD/svg11.dtd"><svg t="1559184981033" class="icon" style="" viewBox="0 0 1024 1024" version="1.1" xmlns="http://www.w3.org/2000/svg" p-id="1319" xmlns:xlink="http://www.w3.org/1999/xlink" width="200" height="200"><defs><style type="text/css"></style></defs><path d="M665.6 665.6c87.04 0 153.6-66.56 153.6-153.6s-66.56-153.6-153.6-153.6c-66.56 0-122.88 40.96-143.36 102.4H0v102.4h522.24c20.48 61.44 76.8 102.4 143.36 102.4z m0-204.8c30.72 0 51.2 20.48 51.2 51.2s-20.48 51.2-51.2 51.2-51.2-20.48-51.2-51.2 20.48-51.2 51.2-51.2zM307.2 358.4c87.04 0 153.6-66.56 153.6-153.6S394.24 51.2 307.2 51.2c-66.56 0-122.88 40.96-143.36 102.4H0v102.4h163.84C184.32 317.44 240.64 358.4 307.2 358.4z m0-204.8c30.72 0 51.2 20.48 51.2 51.2s-20.48 51.2-51.2 51.2-51.2-20.48-51.2-51.2 20.48-51.2 51.2-51.2zM512 153.6h512v102.4H512zM614.4 768h409.6v102.4h-409.6zM870.4 460.8h153.6v102.4h-153.6zM409.6 665.6c-66.56 0-122.88 40.96-143.36 102.4H0v102.4h266.24c20.48 61.44 76.8 102.4 143.36 102.4 87.04 0 153.6-66.56 153.6-153.6s-66.56-153.6-153.6-153.6z m0 204.8c-30.72 0-51.2-20.48-51.2-51.2s20.48-51.2 51.2-51.2 51.2 20.48 51.2 51.2-20.48 51.2-51.2 51.2z" p-id="1320" fill="#ffffff"></path></svg>