<?xml version="1.0" standalone="no"?><!DOCTYPE svg PUBLIC "-//W3C//DTD SVG 1.1//EN" "http://www.w3.org/Graphics/SVG/1.1/DTD/svg11.dtd"><svg t="1583741084089" class="icon" viewBox="0 0 1024 1024" version="1.1" xmlns="http://www.w3.org/2000/svg" p-id="7618" xmlns:xlink="http://www.w3.org/1999/xlink" width="200" height="200"><defs><style type="text/css"></style></defs><path d="M320.1 127.4c-53.1 0-96.2 43.1-96.2 96.2v576.9c0 53.1 43.1 96.2 96.2 96.2h384.6c53.1 0 96.2-43 96.2-96.2V223.6c0-53.1-43-96.2-96.2-96.2H320.1z m-32 96.2c0-17.7 14.4-32.1 32.1-32.1h384.6c17.7 0 32.1 14.4 32.1 32.1v576.9c0 17.7-14.3 32.1-32.1 32.1H320.1c-17.7 0-32.1-14.3-32.1-32.1V223.6z m128.2 32c0-17.7 14.4-32.1 32.1-32.1h128.2c17.7 0 32.1 14.4 32.1 32.1s-14.3 32.1-32.1 32.1H448.3c-17.7 0-32-14.4-32-32.1z" p-id="7619"></path></svg>