<?xml version="1.0" standalone="no"?><!DOCTYPE svg PUBLIC "-//W3C//DTD SVG 1.1//EN" "http://www.w3.org/Graphics/SVG/1.1/DTD/svg11.dtd"><svg t="1583740633381" class="icon" viewBox="0 0 1024 1024" version="1.1" xmlns="http://www.w3.org/2000/svg" p-id="1827" xmlns:xlink="http://www.w3.org/1999/xlink" width="200" height="200"><defs><style type="text/css"></style></defs><path d="M320 320h384V128H320v192zM64 960h256v-192H64v192z m640 0h256v-192h-256v192z m288 64h-320a32 32 0 0 1-32-32v-256a32 32 0 0 1 32-32H768V576H256v128h96a32 32 0 0 1 32 32v256a32 32 0 0 1-32 32h-320a32 32 0 0 1-32-32v-256a32 32 0 0 1 32-32H192V544a32 32 0 0 1 32-32h256V384h-192a32 32 0 0 1-32-32v-256a32 32 0 0 1 32-32h448a32 32 0 0 1 32 32v256a32 32 0 0 1-32 32h-192v128h256a32 32 0 0 1 32 32V704h160a32 32 0 0 1 32 32v256a32 32 0 0 1-32 32z" p-id="1828"></path></svg>